# xmcd CD database file
#
# Track frame offsets:
#	150
#	16307
#	29355
#	48402
#	61237
#	74190
#	86505
#	99992
#	111200
#	122927
#	133480
#	145967
#	165275
#	177910
#	190060
#
# Disc length: 2707 seconds
#
# Revision: 0
# Processed by: cddbd v1.5.2PL0 Copyright (c) Steve Scherf et al.
# Submitted via: CDex 1.51
#
DISCID=d60a910f
DTITLE=Various Artist - Blues legends vol. 1
DYEAR=1996
DGENRE=Blues
TTITLE0=Shake your hand
TTITLE1=Go go shoes
TTITLE2=I've my mojo working
TTITLE3=I'm yourhoochie coochie man
TTITLE4=Louisiana blues
TTITLE5=Walking the boogie
TTITLE6=One bourbon, one Scotch, one Beer
TTITLE7=Please don't go
TTITLE8=Don't start me talking
TTITLE9=Let your conscience be your guide
TTITLE10=99
TTITLE11=Out on the streets again
TTITLE12=If I can't have you
TTITLE13=How many more years
TTITLE14=Baby how long
EXTD=YEAR: 1996
EXTT0=
EXTT1=
EXTT2=
EXTT3=
EXTT4=
EXTT5=
EXTT6=
EXTT7=
EXTT8=
EXTT9=
EXTT10=
EXTT11=
EXTT12=
EXTT13=
EXTT14=
PLAYORDER=
